<?xml version="1.0" ?><!DOCTYPE svg  PUBLIC '-//W3C//DTD SVG 1.1//EN'  'http://www.w3.org/Graphics/SVG/1.1/DTD/svg11.dtd'><svg enable-background="new 0 0 512 512" height="512px" id="Layer_1" version="1.1" viewBox="0 0 512 512" width="512px" xml:space="preserve" xmlns="http://www.w3.org/2000/svg" xmlns:xlink="http://www.w3.org/1999/xlink"><path clip-rule="evenodd" d="M499.009,327.9c-13.239-2.841-22.909-9.29-29.64-21.926  c-8.825-16.555-19.635-32.069-30.04-47.732c-2.22-3.33-6.024-6.88-9.71-7.757c-35.95-8.558-72-16.697-108.09-24.655  c-10.215-2.25-20.655-3.5-30.99-5.208c42.351-6.165,78.365-25.438,112.22-50.175c12.455,18.042,24,35.595,36.535,52.405  c3.646,4.885,9.66,9.362,15.445,10.995c9.63,2.715,19.96,2.985,29.99,4.285c0.145-0.827,0.29-1.655,0.43-2.482  c-5.63-1.545-11.229-3.24-16.91-4.607c-11.229-2.708-19.3-8.603-25.175-19.14c-9.3-16.677-20.075-32.545-30.445-48.612  c-6.819-10.573-6.949-9.743-17.319-3.34c-19.94,12.317-39.95,24.787-61.016,34.955c-13.5,6.515-28.93,9.03-43.495,13.338  c52.915-30.608,80.676-81.105,109.71-132.088c8.921,19.185,17.061,37.365,25.881,55.205c2.39,4.835,6.015,10.5,10.54,12.563  c12.045,5.49,24.89,9.228,37.42,13.663c0.3-0.835,0.609-1.667,0.915-2.5c-8.905-4.373-17.796-8.772-26.716-13.103  c-7.1-3.442-11.479-8.768-14.489-16.295c-8.13-20.373-16.99-40.46-25.92-60.502c-1.49-3.348-4.766-5.9-7.221-8.82  c-2.85,2.855-6.575,5.238-8.425,8.64c-21.63,39.795-44.455,78.745-78.045,109.98c-7.12,6.623-15.38,12.03-23.11,17.998  c-1.09-0.21-2.185-0.425-3.279-0.638c10.77-20.135-8.61-26.367-14.7-39.14c-6.965,8.77-19.428,8.83-28.32,1.327  c-4.245,4.738-8.975,9.078-12.472,14.253c-2.283,3.38-3.555,7.912-3.865,12.037c-0.36,4.808,0.825,9.73,1.47,15.818  c-4.857-2.41-9.395-3.59-12.482-6.377c-15.99-14.433-34.118-27.405-46.77-44.41c-19.378-26.035-34.818-54.995-52.167-82.567  c-1.788-2.845-4.943-5.895-7.935-6.488c-1.62-0.325-5.022,3.99-6.27,6.81c-8.625,19.49-17.55,38.893-25.018,58.833  c-4.105,10.962-11.025,17.795-21.158,22.39c-7.072,3.205-14.05,6.615-21.07,9.935c9.438-0.545,18.215-2.71,26.845-5.353  c10.667-3.265,18.717-9.31,22.882-20.413c3.623-9.658,8.575-18.823,12.98-28.183c3.74-7.945,7.538-15.865,11.723-24.657  c46.397,80.5,56.06,91.938,109.567,130.21c-0.522,0.18-60.076-9.064-106.288-47.585c-5.9-4.918-10.01-4.772-14.272,2.228  c-10.765,17.67-22.522,34.752-32.865,52.66c-4.967,8.598-11.497,13.653-20.647,16.223c-6.547,1.84-13.042,3.873-19.56,5.817  c4.133,1.365,7.883,1.468,11.625,1.35c15.765-0.5,29.08-4.743,38.028-19.61c9.645-16.035,20.917-31.09,31.808-47.05  c35.66,25.045,72.325,46.125,116.735,48.982c-2.638,1.085-99.07,21.775-144.583,31.788c-2.672,0.587-5.71,2.705-7.19,5.005  c-9.295,14.438-18.485,28.962-27.143,43.792c-8.115,13.9-17.473,25.82-34.6,28.73c-4.177,0.71-8.268,1.93-12.397,2.915  c6.915,1.404,13.487,1.354,19.995,0.675c12.097-1.26,21.927-5.915,28.527-17.15c7.138-12.135,15.08-23.87,23.53-35.14  c5.43-7.24,11.302-16.87,18.912-19.253c23.545-7.372,47.975-11.982,72.147-17.267c15.153-3.315,30.463-5.915,46.63-9.013  c-7.945,16.61-17.285,29.183-33.495,36.592c-15.042,6.881-28.228,18.061-43.51,24.12c-24.002,9.516-34.685,26.641-35.93,51.146  c-0.482,9.515-5.913,15.38-13.353,20.145c-7.575,4.86-15.063,9.846-22.59,14.775c0.44,0.785,23.535-7.396,33.91-13.521  c4.365-2.574,9.158-8.175,9.698-12.864c3.28-28.431,20.22-44.66,45.393-54.65c5.482-2.175,10.387-5.8,15.563-8.75  c6.915-3.94,22.855-10.82,23.905-10.335c-16.455,21.24-16.813,45.405-14.575,69.865c0.51-0.15,1.805-0.55,3.81-1.16  c0.173,31.01,11.833,57.939,28.46,82.875c0.343-0.396,1.252-1.45,2.17-2.515c12.328,15.67,23.655,23.96,37.018,25.14  c7.57,0.67,15.275,0.18,23.035-0.49c18.795-1.609,28.465-14.795,39.8-26.39c3.95-4.04,9.2-7.695,11.21-12.61  c5.19-12.685,9.771-25.77,12.96-39.08c3.2-13.38,4.42-27.24,6.436-40.435c-0.766-0.375,0.385,0.185,2.649,1.295  c0-10.155,1.195-19.73-0.345-28.835c-1.479-8.771-5.79-17.065-8.665-25.01c11.135,6.335,22.525,14.455,35.13,19.619  c21.811,8.94,34.885,23.405,37.625,47.235c0.561,4.875,3.28,11.23,7.085,13.68c11.605,7.46,24.215,13.341,36.44,19.841  c0.555-1.021-11.025-11.631-17.635-15.455c-10.115-5.851-16.32-13.78-17.485-25.886c-0.745-7.75-2.595-15.56-5.23-22.88  c-1.64-4.55-4.819-9.649-8.79-12.055c-18.76-11.375-37.435-23.195-57.3-32.345c-18.029-8.311-25.819-23.735-36.024-41.473  c40.22,9.405,78.35,18.205,116.37,27.433c3.13,0.76,6.21,3.96,8.21,6.805c9.909,14.115,20.31,27.995,28.909,42.9  c12,20.805,30.7,22.814,51.4,21.055C507.789,330.37,503.459,328.85,499.009,327.9z M306.159,410.225c0,0-66.655-15.51-96.67,0  l40.083-59.13l-40.083-63.899c0,0,66.65,15.51,96.67,0l-40.085,59.13L306.159,410.225z" fill-rule="evenodd"/></svg>