<?xml version="1.0" standalone="no"?>
<!DOCTYPE svg PUBLIC "-//W3C//DTD SVG 20010904//EN"
 "http://www.w3.org/TR/2001/REC-SVG-20010904/DTD/svg10.dtd">
<svg version="1.0" xmlns="http://www.w3.org/2000/svg"
 width="638.000000pt" height="131.000000pt" viewBox="0 0 638.000000 131.000000"
 preserveAspectRatio="xMidYMid meet">

<g transform="translate(0.000000,131.000000) scale(0.100000,-0.100000)"
fill="#000000" stroke="none">
<path d="M3683 1146 c-95 -22 -179 -71 -258 -151 -108 -108 -155 -224 -155
-378 0 -247 156 -453 394 -522 83 -24 259 -17 337 13 146 57 268 182 320 327
30 85 36 230 14 315 -45 175 -172 315 -341 377 -87 31 -221 39 -311 19z m256
-120 c51 -14 131 -59 131 -73 0 -16 -196 -203 -212 -203 -10 0 -18 -8 -19 -17
0 -15 -2 -14 -9 3 -10 26 -65 47 -88 35 -25 -14 -59 -53 -64 -76 -6 -26 25
-80 45 -79 9 1 14 -2 11 -7 -3 -5 -12 -9 -20 -9 -8 0 -14 -6 -14 -13 0 -7 -49
-61 -109 -121 -125 -124 -122 -124 -169 -27 -25 51 -27 66 -27 176 0 109 2
125 27 178 50 107 174 210 284 236 60 14 173 12 233 -3z m250 -218 c70 -138
51 -328 -47 -456 -57 -75 -179 -141 -289 -156 -91 -13 -226 23 -298 79 -19 15
-16 19 73 108 l92 92 41 -45 40 -45 -31 44 c-35 51 -36 58 -14 82 15 17 22 13
117 -67 109 -91 134 -100 179 -64 29 22 40 63 27 97 -5 13 -42 63 -83 111 -70
82 -74 88 -58 105 9 10 24 16 33 14 12 -3 16 0 12 10 -7 19 136 165 157 161 8
-2 30 -33 49 -70z m-255 -284 c108 -107 111 -129 4 -26 -73 70 -120 134 -57
77 18 -16 42 -39 53 -51z"/>
<path d="M3823 813 c-6 -21 -10 -40 -8 -42 7 -6 26 51 23 66 -2 8 -8 -3 -15
-24z"/>
<path d="M3694 772 c-6 -4 -17 -18 -24 -32 -12 -24 -11 -24 19 4 17 17 31 31
31 33 0 5 -15 3 -26 -5z"/>
<path d="M3645 620 c-3 -6 1 -7 9 -4 18 7 21 14 7 14 -6 0 -13 -4 -16 -10z"/>
<path d="M4000 696 c0 -2 8 -10 18 -17 15 -13 16 -12 3 4 -13 16 -21 21 -21
13z"/>
<path d="M3985 630 c-7 -12 -8 -11 27 -14 15 -1 35 -10 44 -21 8 -11 12 -13 8
-5 -21 44 -63 65 -79 40z"/>
<path d="M3807 450 c-3 -12 3 -29 14 -43 19 -20 19 -21 10 -1 -5 11 -7 30 -4
42 3 12 1 22 -5 22 -5 0 -12 -9 -15 -20z"/>
<path d="M1590 1130 c-96 -10 -127 -28 -156 -86 -21 -42 -24 -63 -22 -120 l3
-69 101 -3 102 -3 4 71 c4 68 14 90 43 90 32 0 40 -20 40 -105 0 -102 -10
-115 -87 -115 l-49 0 3 -62 c3 -63 3 -63 34 -64 51 -2 87 -25 97 -64 11 -43 3
-208 -11 -222 -17 -17 -59 -1 -66 24 -3 13 -6 63 -6 111 l0 88 -102 -3 -103
-3 1 -100 c1 -55 5 -111 8 -125 9 -40 39 -73 92 -100 43 -22 61 -25 149 -24
200 1 262 74 252 297 -6 136 -14 162 -61 187 -33 17 -33 21 4 45 32 21 39 33
47 80 19 106 -22 216 -92 249 -52 25 -140 35 -225 26z"/>
<path d="M346 948 c-6 -168 -22 -299 -50 -403 -23 -90 -33 -110 -54 -113 -22
-3 -22 -6 -22 -163 l0 -159 80 0 80 0 0 75 0 75 179 0 c205 0 195 5 189 -93
l-3 -52 75 0 75 0 0 157 c0 157 0 158 -22 158 l-23 0 0 345 0 345 -248 0 -249
0 -7 -172z m279 -253 l0 -260 -60 0 c-70 0 -66 -13 -42 145 9 58 19 157 22
220 9 161 9 162 48 158 l32 -3 0 -260z"/>
<path d="M962 693 l3 -428 198 -3 198 -2 -3 81 -3 81 -80 2 -80 1 -3 98 -3 97
71 0 70 0 0 80 0 79 -67 3 -68 3 0 80 0 80 73 3 72 3 0 84 0 85 -190 0 -190 0
2 -427z"/>
<path d="M2200 690 l0 -430 115 0 115 0 0 345 0 345 80 0 80 0 0 85 0 85 -195
0 -195 0 0 -430z"/>
<path d="M2687 1113 c-4 -3 -7 -161 -7 -351 l0 -344 -30 -11 c-26 -10 -30 -17
-30 -48 0 -20 -3 -51 -6 -69 l-7 -32 104 4 c196 9 193 3 197 391 l3 297 30 0
29 0 0 -345 0 -345 115 0 115 0 0 430 0 430 -253 0 c-140 0 -257 -3 -260 -7z"/>
<path d="M4460 689 l0 -430 213 3 c308 4 302 -1 302 285 0 168 -2 184 -21 210
-35 48 -78 63 -181 63 l-93 0 0 74 c0 89 0 89 128 85 l87 -3 3 72 3 72 -221 0
-220 0 0 -431z m288 -134 c2 -113 0 -131 -15 -142 -9 -7 -25 -13 -35 -13 -17
0 -18 12 -18 146 l0 145 33 -3 32 -3 3 -130z"/>
<path d="M5129 1118 c-2 -4 -109 -799 -112 -828 l-2 -25 112 -3 111 -3 7 58
c3 32 7 65 8 73 2 10 16 16 43 18 l42 3 7 -76 7 -76 218 3 c319 4 303 -16 310
393 l5 290 30 0 30 0 3 -342 2 -343 110 0 110 0 0 430 0 430 -260 0 -260 0 -2
-352 -3 -353 -32 -9 c-29 -9 -32 -14 -35 -55 -2 -32 -13 21 -36 169 -17 118
-34 233 -37 255 -2 22 -7 51 -11 65 -5 23 -43 255 -44 273 0 6 -318 11 -321 5z
m184 -326 c4 -49 10 -121 13 -160 l7 -72 -36 0 c-20 0 -38 4 -41 8 -3 5 -1 42
5 83 5 41 12 90 15 109 13 101 17 120 24 120 4 0 10 -40 13 -88z"/>
</g>
</svg>
